<svg xmlns="http://www.w3.org/2000/svg" xmlns:xlink="http://www.w3.org/1999/xlink" width="50" height="50" viewBox="0 0 50 50">
  <defs>
    <clipPath id="clip-path">
      <rect id="Rectangle_159" data-name="Rectangle 159" width="50" height="50" transform="translate(402 1127)" fill="#fff" stroke="#707070" stroke-width="1"/>
    </clipPath>
  </defs>
  <g id="Mask_Group_13" data-name="Mask Group 13" transform="translate(-402 -1127)" clip-path="url(#clip-path)">
    <path id="Vector_4" data-name="Vector 4" d="M42.678,7.322A25,25,0,0,0,8.044,6.631a.733.733,0,0,0,.994,1.076,23.53,23.53,0,0,1,32.077.142L30.271,18.693a6.655,6.655,0,0,0-4.539,2.245V18.8C26.586,18.07,29,15.77,29,12.937c0-3.369-3.41-5.985-3.555-6.095a.732.732,0,0,0-.883,0C24.413,6.952,21,9.568,21,12.937c0,2.833,2.411,5.133,3.264,5.858v2.142c-1.631-2.074-4.737-2.6-7.228-2.252a.733.733,0,0,0-.625.625c-.025.18-.587,4.441,1.8,6.823a6.288,6.288,0,0,0,3.023,1.6l-1.021,1.021A10.332,10.332,0,0,0,17.04,28.7a.732.732,0,0,0-.625.624,11.421,11.421,0,0,0,.081,3.2.73.73,0,0,0-.191.137L7.849,41.115A23.536,23.536,0,0,1,6.485,10.469a.733.733,0,0,0-1.152-.905A25,25,0,0,0,7.322,42.678,25,25,0,0,0,42.678,7.322Zm-15.5,14.195c1.418-1.418,3.892-1.48,5.009-1.427a10.565,10.565,0,0,1-.038,1.543,5.761,5.761,0,0,1-1.39,3.464,6.1,6.1,0,0,1-4,1.427l2.394-2.372a.732.732,0,1,0-1.031-1.04l-2.374,2.353A6.063,6.063,0,0,1,27.173,21.517Zm-4.7-8.58c0-2,1.7-3.8,2.532-4.55.829.753,2.532,2.545,2.532,4.55a6.082,6.082,0,0,1-1.8,3.817V12.937a.732.732,0,1,0-1.465,0v3.817A6.082,6.082,0,0,1,22.468,12.937ZM17.82,20.09c1.118-.054,3.59.009,5.008,1.427a6.064,6.064,0,0,1,1.426,3.948l-2.374-2.353a.732.732,0,1,0-1.031,1.04l2.395,2.373c-.17-.008-.347-.02-.532-.038a5.762,5.762,0,0,1-3.464-1.39C17.829,23.68,17.766,21.208,17.82,20.09Zm5.228,7.9c.412.022.821.022,1.22,0v2.962a5.734,5.734,0,0,0-2.435-1.75ZM17.82,30.107c1.118-.053,3.59.009,5.008,1.427a6.117,6.117,0,0,1,1.429,4.017l-2.377-2.356a.733.733,0,0,0-1.031,1.041l2.326,2.3a5.973,5.973,0,0,1-3.927-1.425C17.829,33.7,17.766,31.225,17.82,30.107ZM41.642,41.642a23.533,23.533,0,0,1-32.757.509l8.04-8.04c1.166,3.038,4.336,4.032,7.343,3.9v4.564a.732.732,0,1,0,1.465,0V38.009c2.346.1,5.046-.426,6.535-2.413a.733.733,0,0,0-1.172-.879,5.56,5.56,0,0,1-4.268,1.821l2.325-2.3a.733.733,0,0,0-1.031-1.041l-2.378,2.357c.008-.176.02-.361.039-.553a5.761,5.761,0,0,1,1.39-3.464c1.418-1.418,3.891-1.48,5.009-1.427a10.675,10.675,0,0,1-.018,1.32.733.733,0,0,0,1.46.112,11.336,11.336,0,0,0-.039-2.212.733.733,0,0,0-.625-.625c-2.491-.346-5.6.177-7.228,2.252V27.993c2.107.094,4.508-.31,6.057-1.859,2.382-2.382,1.821-6.643,1.8-6.823-.083-.6-.723-.648-1.183-.677l9.749-9.749a23.533,23.533,0,0,1-.509,32.757Z" transform="translate(402 1127)"/>
  </g>
</svg>
