<svg xmlns="http://www.w3.org/2000/svg" xmlns:xlink="http://www.w3.org/1999/xlink" width="16" height="16" viewBox="0 0 16 16">
  <defs>
    <clipPath id="clip-path">
      <rect id="Rectangle_163" data-name="Rectangle 163" width="16" height="16" transform="translate(325 3270)" fill="#fff" stroke="#707070" stroke-width="1"/>
    </clipPath>
  </defs>
  <g id="Mask_Group_14" data-name="Mask Group 14" transform="translate(-325 -3270)" clip-path="url(#clip-path)">
    <path id="thumbsup" d="M8.826.232l-.218.2L3.891,5.1H.7v11.13H12.413a2.1,2.1,0,0,0,2.043-1.652l1.5-6.957A2.1,2.1,0,0,0,13.913,5.1h-4l.131-.522a1.59,1.59,0,0,0,.435-.435A3.461,3.461,0,0,0,11.13,2.08,1.954,1.954,0,0,0,9.109.232Zm.5,1.457c.294.057.413.177.413.391A2.045,2.045,0,0,1,9.37,3.341a.99.99,0,0,1-.3.3l-.239.131-.087.282L8.326,5.623l-.218.87h5.8a.682.682,0,0,1,.674.848L13.109,14.3a.7.7,0,0,1-.7.543H4.87V6.08Zm-7.239,4.8H3.478v8.348H2.087Z" transform="translate(324.651 3269.768)" fill="#252525"/>
  </g>
</svg>
