<svg xmlns="http://www.w3.org/2000/svg" xmlns:xlink="http://www.w3.org/1999/xlink" width="50" height="50" viewBox="0 0 50 50">
  <defs>
    <clipPath id="clip-path">
      <rect id="Rectangle_159" data-name="Rectangle 159" width="50" height="50" transform="translate(402 1127)" fill="#fff" stroke="#707070" stroke-width="1"/>
    </clipPath>
  </defs>
  <g id="Mask_Group_11" data-name="Mask Group 11" transform="translate(-402 -1127)" clip-path="url(#clip-path)">
    <path id="Vector-2" d="M42.678,7.322A25,25,0,0,0,7.322,42.678a24.981,24.981,0,0,0,36.1-.78.733.733,0,0,0-1.079-.991A23.532,23.532,0,0,1,8.885,42.151l8.666-8.666v3.791a.732.732,0,0,0,.732.732H31.389a.742.742,0,0,0,.558-.257l8.86-10.371a.732.732,0,0,0,.176-.476V18.589a.743.743,0,0,0-.732-.733H33.18l8.972-8.971a23.535,23.535,0,0,1,2.51,29.052.733.733,0,0,0,1.223.806A25,25,0,0,0,42.678,7.322ZM19.016,29.693H30.658v6.85H19.016Zm20.5-3.059-7.4,8.657V29.23l7.4-8.657Zm-8.465,1.594H19.873l7.609-8.906h11.18ZM27.143,17.856a.733.733,0,0,0-.557.257l-2.8,3.283a32.093,32.093,0,0,0-6.373-9.177.736.736,0,0,0-.948-.095,16.07,16.07,0,0,0-2.234,2.542.733.733,0,0,0,1.065,1.006c.561-.593,1.046-1.249,1.58-1.865a30.234,30.234,0,0,1,5.842,8.841l-4.986,5.837a.718.718,0,0,0-.175.478v2.716a6.523,6.523,0,0,1-5.91-2.666,6.669,6.669,0,0,1-.649-6.234A18.243,18.243,0,0,1,12.716,19.3a.733.733,0,0,0-1.248-.767,19.65,19.65,0,0,0-1.856,3.76,8.093,8.093,0,0,0,.835,7.569A7.985,7.985,0,0,0,15.864,33.1L7.849,41.115A23.534,23.534,0,0,1,41.115,7.849L31.108,17.856Z" transform="translate(402 1127)"/>
  </g>
</svg>
