<svg xmlns="http://www.w3.org/2000/svg" xmlns:xlink="http://www.w3.org/1999/xlink" width="50" height="50" viewBox="0 0 50 50">
  <defs>
    <clipPath id="clip-path">
      <rect id="Rectangle_159" data-name="Rectangle 159" width="50" height="50" transform="translate(402 1127)" fill="#fff" stroke="#707070" stroke-width="1"/>
    </clipPath>
  </defs>
  <g id="Mask_Group_12" data-name="Mask Group 12" transform="translate(-402 -1127)" clip-path="url(#clip-path)">
    <path id="Vector-3" d="M42.678,7.322A25,25,0,0,0,7.322,42.678,25,25,0,0,0,42.678,7.322ZM8.358,8.358a23.533,23.533,0,0,1,32.757-.509l-8.38,8.38a6.937,6.937,0,0,0-3.157-2.195,9.824,9.824,0,0,0,.778-4.417.732.732,0,0,0-.672-.672c-.157-.012-3.882-.281-6.094,1.93a5.42,5.42,0,0,0-.546.639v-.854a.733.733,0,0,0-1.465,0v4.466a7.4,7.4,0,0,0-2.7-1.249,7,7,0,0,0-4.7.511A.733.733,0,0,0,14.83,15.7a5.791,5.791,0,0,1,6.914,1.589.732.732,0,0,0,1.138,0,5.813,5.813,0,0,1,4.8-2.138A5.445,5.445,0,0,1,32.7,19.359H30.82a2.164,2.164,0,0,0-.807,4.14v5.3L28.9,31.565a3.048,3.048,0,0,1-5.219,1.027,1.783,1.783,0,0,0-2.737,0,3.05,3.05,0,0,1-5.219-1.027l-3.637-9.051a5.542,5.542,0,0,1,.219-4.219.733.733,0,0,0-1.325-.625,7,7,0,0,0-.271,5.346l.011.03,3.634,9.043a4.476,4.476,0,0,0,.922,1.6l-7.429,7.43A23.532,23.532,0,0,1,8.358,8.358ZM31.477,27.675V23.657h5.408v4.019Zm6.066-5.484H30.82a.684.684,0,0,1,0-1.368h6.724A.684.684,0,0,1,37.544,22.192ZM28.1,13.716c-.113-.011-.227-.021-.341-.027a7.284,7.284,0,0,0-4.528,1.3,5.654,5.654,0,0,1,1.4-3.077A6.534,6.534,0,0,1,28.9,10.4,7.624,7.624,0,0,1,28.1,13.716ZM41.642,41.642a23.533,23.533,0,0,1-32.757.509l7.546-7.546a4.522,4.522,0,0,0,5.649-1.089.3.3,0,0,1,.465,0,4.52,4.52,0,0,0,7.468-.811V36.9a4.174,4.174,0,0,0,4.165,4.169,4.248,4.248,0,0,0,4.173-4.451.733.733,0,0,0-1.465,0A2.68,2.68,0,0,1,34.179,39.6a2.708,2.708,0,0,1-2.7-2.7V29.14h5.408v3.579a.733.733,0,0,0,1.465,0V23.5a2.164,2.164,0,0,0-.807-4.14H34.192a7.077,7.077,0,0,0-.642-1.873l8.6-8.6a23.533,23.533,0,0,1-.509,32.757Z" transform="translate(402 1127)"/>
  </g>
</svg>
