<svg xmlns="http://www.w3.org/2000/svg" width="123" height="15" viewBox="0 0 123 15">
  <g id="Group_21" data-name="Group 21" transform="translate(-1036 -311)">
    <path id="Path_28" data-name="Path 28" d="M9.5,5.838,7.49,0,5.42,5.791,0,5.838l4.456,3.7L2.855,15,7.49,11.684,12.125,15l-1.6-5.427L15,5.838Z" transform="translate(1036 311)" fill="#ffc100"/>
    <path id="Path_28-2" data-name="Path 28" d="M9.5,5.838,7.49,0,5.42,5.791,0,5.838l4.456,3.7L2.855,15,7.49,11.684,12.125,15l-1.6-5.427L15,5.838Z" transform="translate(1063 311)" fill="#ffc100"/>
    <path id="Path_28-3" data-name="Path 28" d="M9.5,5.838,7.49,0,5.42,5.791,0,5.838l4.456,3.7L2.855,15,7.49,11.684,12.125,15l-1.6-5.427L15,5.838Z" transform="translate(1090 311)" fill="#ffc100"/>
    <path id="Path_28-4" data-name="Path 28" d="M9.5,5.838,7.49,0,5.42,5.791,0,5.838l4.456,3.7L2.855,15,7.49,11.684,12.125,15l-1.6-5.427L15,5.838Z" transform="translate(1117 311)" fill="#ffc100"/>
    <path id="Path_28-5" data-name="Path 28" d="M9.5,5.838,7.49,0,5.42,5.791,0,5.838l4.456,3.7L2.855,15,7.49,11.684,12.125,15l-1.6-5.427L15,5.838Z" transform="translate(1144 311)" fill="#ffc100"/>
  </g>
</svg>
