<svg xmlns="http://www.w3.org/2000/svg" xmlns:xlink="http://www.w3.org/1999/xlink" width="50" height="50" viewBox="0 0 50 50">
  <defs>
    <clipPath id="clip-path">
      <rect id="Rectangle_159" data-name="Rectangle 159" width="50" height="50" transform="translate(402 1127)" fill="#fff" stroke="#707070" stroke-width="1"/>
    </clipPath>
  </defs>
  <g id="Mask_Group_10" data-name="Mask Group 10" transform="translate(-402 -1127)" clip-path="url(#clip-path)">
    <g id="vector_1" data-name="vector 1" transform="translate(402 1127)">
      <path id="Path_91" data-name="Path 91" d="M42.678,7.322A25,25,0,0,0,3.141,37.138a.732.732,0,1,0,1.28-.712,23.558,23.558,0,1,1,2.086,3.133.732.732,0,0,0-1.15.907A25,25,0,1,0,42.678,7.322Z"/>
      <path id="Path_92" data-name="Path 92" d="M39.658,11.963A17.523,17.523,0,0,0,28.941,11.2a10.634,10.634,0,0,0-6.49,5.014,7.529,7.529,0,0,0-.554,6.754,6.72,6.72,0,0,0,2.647,2.88c-.01.256-.017.517-.017.787v5.949a12.87,12.87,0,0,0-1.316-1.7,5.372,5.372,0,0,0-2.61-6.8,8.836,8.836,0,0,0-6.646-.285A10.709,10.709,0,0,0,8.67,27.5a.732.732,0,0,0,.51,1.132c1.6.221,2.44,1.238,3.411,2.416,1.123,1.363,2.4,2.908,5.011,3.222a5.3,5.3,0,0,0,4.716-1.885c.043-.051.082-.1.123-.157a9.677,9.677,0,0,1,1.975,3.585.729.729,0,0,0,.113.234v4.483a.732.732,0,0,0,1.465,0V26.637c0-.042,0-.084,0-.126a6.979,6.979,0,0,0,2.168.348c.2,0,.4-.009.6-.026,2.78-.246,5.125-2.21,6.274-5.252.1-.266.2-.552.3-.877a.732.732,0,1,0-1.4-.438c-.093.3-.183.558-.273.8a6.153,6.153,0,0,1-5.033,4.31,5.48,5.48,0,0,1-2.554-.4c.486-4.85,3.019-6.225,3.148-6.291a.732.732,0,0,0-.653-1.311c-.144.071-3.126,1.6-3.872,6.8a5.111,5.111,0,0,1-1.473-1.822,6.077,6.077,0,0,1,.511-5.422,9.162,9.162,0,0,1,5.6-4.31,15.579,15.579,0,0,1,8.566.3,10.719,10.719,0,0,0-2.407,2.974.732.732,0,1,0,1.291.692,9.914,9.914,0,0,1,3.046-3.329.733.733,0,0,0,.315-.772A.77.77,0,0,0,39.658,11.963ZM17.776,32.814c-2.032-.244-3.014-1.436-4.055-2.7A7.835,7.835,0,0,0,10.6,27.5a10.1,10.1,0,0,1,3.825-2.312,7.332,7.332,0,0,1,5.505.2,3.91,3.91,0,0,1,2.1,4.361,10.731,10.731,0,0,0-5.085-2.533.732.732,0,1,0-.235,1.446,9.5,9.5,0,0,1,4.7,2.494c-.069.1-.14.195-.218.288A3.808,3.808,0,0,1,17.776,32.814Z"/>
    </g>
  </g>
</svg>
