<svg xmlns="http://www.w3.org/2000/svg" xmlns:xlink="http://www.w3.org/1999/xlink" width="45" height="30" viewBox="0 0 45 30">
  <defs>
    <clipPath id="clip-path">
      <rect id="Rectangle_157" data-name="Rectangle 157" width="45" height="30" transform="translate(1459 262)" fill="#fff"/>
    </clipPath>
  </defs>
  <g id="Mask_Group_9" data-name="Mask Group 9" transform="translate(-1459 -262)" clip-path="url(#clip-path)">
    <g id="FLAG" transform="translate(1459 262)">
      <path id="Path_82" data-name="Path 82" d="M.776.258A.776.776,0,0,0,0,1.034V28.965a.776.776,0,0,0,.776.776h9.31V.258Z" fill="#ff4b55"/>
      <path id="Path_83" data-name="Path 83" d="M44.224.258h-9.31V29.741h9.31A.776.776,0,0,0,45,28.965V1.034A.776.776,0,0,0,44.224.258Z" fill="#ff4b55"/>
      <path id="Path_84" data-name="Path 84" d="M27.208,18.406l4.6-2.631-1.056-.528a.776.776,0,0,1-.422-.8l.344-2.577-1.949.567a.776.776,0,0,1-.974-.577l-.187-.844-1.83,2.142a.384.384,0,0,1-.671-.315L25.848,8.3l-1.2.327a.776.776,0,0,1-.889-.383L22.5,5.885v0L21.24,8.246a.776.776,0,0,1-.889.383l-1.2-.327.782,4.545a.384.384,0,0,1-.671.315l-1.83-2.142-.187.844a.776.776,0,0,1-.974.577l-1.949-.567.344,2.577a.776.776,0,0,1-.422.8l-1.056.528,4.6,2.631a1.12,1.12,0,0,1,.494,1.365l-.394,1.053,3.945-.337a.367.367,0,0,1,.4.376l-.124,4.223h.776l-.124-4.223a.367.367,0,0,1,.4-.376l3.947.337-.394-1.053A1.121,1.121,0,0,1,27.208,18.406Z" fill="#ff4b55"/>
    </g>
  </g>
</svg>
