<svg xmlns="http://www.w3.org/2000/svg" width="46.822" height="43.729" viewBox="0 0 46.822 43.729">
  <g id="Group_157" data-name="Group 157" transform="translate(-780.311 -44.192)">
    <path id="Path_65" data-name="Path 65" d="M-18517.191-15491.079v-17.45a11.25,11.25,0,0,1-4.334-7.944c-.236-5.011,2.652-9.433,5.955-10.258a8.539,8.539,0,0,1,6.014.825,10.966,10.966,0,0,1,10.021-6.9c7.664-.177,10.789,6.9,10.789,6.9s4.834-2.476,9.02.59,2.771,10.553,2.771,10.553-1.062,4.481-4.246,5.9v17.789Z" transform="translate(19302.85 15578)" fill="none" stroke="#000" stroke-width="2"/>
    <path id="Path_66" data-name="Path 66" d="M-18517.162-15500.5h35.844" transform="translate(19303.383 15578)" fill="none" stroke="#000" stroke-width="2"/>
    <path id="Path_67" data-name="Path 67" d="M-18505.607-15517.3a7.082,7.082,0,0,1,0,6.544c-1.768,3.714.709,5.6.709,5.6" transform="translate(19302.936 15578)" fill="none" stroke="#000" stroke-width="2"/>
    <path id="Path_68" data-name="Path 68" d="M-18505.607-15517.3a7.082,7.082,0,0,1,0,6.544c-1.768,3.714.709,5.6.709,5.6" transform="translate(19311.361 15578)" fill="none" stroke="#000" stroke-width="2"/>
    <path id="Path_69" data-name="Path 69" d="M-18505.607-15517.3a7.082,7.082,0,0,1,0,6.544c-1.768,3.714.709,5.6.709,5.6" transform="translate(19319.787 15578)" fill="none" stroke="#000" stroke-width="2"/>
  </g>
</svg>
