<svg xmlns="http://www.w3.org/2000/svg" xmlns:xlink="http://www.w3.org/1999/xlink" width="27" height="27" viewBox="0 0 27 27">
  <defs>
    <clipPath id="clip-path">
      <rect id="Rectangle_49" data-name="Rectangle 49" width="17" height="17" rx="3" transform="translate(0.242 0.419)" fill="#fff"/>
    </clipPath>
  </defs>
  <g id="Group_158" data-name="Group 158" transform="translate(-1305 -200)">
    <rect id="Rectangle_50" data-name="Rectangle 50" width="27" height="27" rx="3" transform="translate(1305 200)"/>
    <g id="Mask_Group_2" data-name="Mask Group 2" transform="translate(1309.758 204.581)" clip-path="url(#clip-path)">
      <g id="_001-facebook-logo" data-name="001-facebook-logo" transform="translate(0 0)">
        <path id="Facebook__x28_alt_x29_" d="M17.561,2.927A3.033,3.033,0,0,0,14.634,0H2.927A3.033,3.033,0,0,0,0,2.927V14.634a3.033,3.033,0,0,0,2.927,2.927H8.781V10.927H6.634V8H8.781V6.86a3.6,3.6,0,0,1,3.293-3.738h2.366V6.049H12.073c-.259,0-.561.314-.561.785V8h2.927v2.927H11.512v6.634h3.122a3.033,3.033,0,0,0,2.927-2.927Z" fill="#fff"/>
      </g>
    </g>
  </g>
</svg>
