<svg xmlns="http://www.w3.org/2000/svg" width="70.289" height="46.193" viewBox="0 0 70.289 46.193">
  <g id="Group_112" data-name="Group 112" transform="translate(0 1.007)">
    <path id="Path_76" data-name="Path 76" d="M-18068.578-15518.311v-9.5a3.351,3.351,0,0,1,3.588-3.364h34.512a3.06,3.06,0,0,1,3.445,3.084v35.836" transform="translate(18078.5 15531.187)" fill="none" stroke="#000" stroke-width="2"/>
    <path id="Path_77" data-name="Path 77" d="M-18027.033-15521.385h8.936l8.887,14.285v14.717h-2.676" transform="translate(18078.5 15531.187)" fill="none" stroke="#000" stroke-width="2"/>
    <path id="Path_78" data-name="Path 78" d="M-18025.174-15492.383h-24.918" transform="translate(18078.5 15531.187)" fill="none" stroke="#000" stroke-width="2"/>
    <path id="Path_79" data-name="Path 79" d="M-18063.971-15492.259s-4.852.659-4.715-4.285v-5.715" transform="translate(18078.5 15531.187)" fill="none" stroke="#000" stroke-width="2"/>
    <line id="Line_22" data-name="Line 22" x2="13" transform="translate(5 15.687)" fill="none" stroke="#000" stroke-width="2"/>
    <line id="Line_23" data-name="Line 23" x2="18" transform="translate(0 20.687)" fill="none" stroke="#000" stroke-width="2"/>
    <line id="Line_24" data-name="Line 24" x2="14" transform="translate(4 25.687)" fill="none" stroke="#000" stroke-width="2"/>
    <path id="Path_80" data-name="Path 80" d="M-18032.158-15511.249v14.1" transform="translate(18078.5 15531.187)" fill="none" stroke="#000" stroke-width="2"/>
    <path id="Path_81" data-name="Path 81" d="M-18024.131-15516.691v9.478h10.113l-6.123-9.478Z" transform="translate(18078.5 15531.187)" fill="none" stroke="#000" stroke-width="2"/>
    <g id="Ellipse_27" data-name="Ellipse 27" transform="translate(53.5 32.187)" fill="none" stroke="#000" stroke-width="2">
      <circle cx="6.5" cy="6.5" r="6.5" stroke="none"/>
      <circle cx="6.5" cy="6.5" r="5.5" fill="none"/>
    </g>
    <g id="Ellipse_28" data-name="Ellipse 28" transform="translate(15.5 32.187)" fill="none" stroke="#000" stroke-width="2">
      <circle cx="6.5" cy="6.5" r="6.5" stroke="none"/>
      <circle cx="6.5" cy="6.5" r="5.5" fill="none"/>
    </g>
  </g>
</svg>
