<svg xmlns="http://www.w3.org/2000/svg" xmlns:xlink="http://www.w3.org/1999/xlink" width="27" height="27" viewBox="0 0 27 27">
  <defs>
    <clipPath id="clip-path">
      <rect id="Rectangle_48" data-name="Rectangle 48" width="17" height="17" rx="3" transform="translate(0.419 0.419)" fill="#fff"/>
    </clipPath>
  </defs>
  <g id="Group_157" data-name="Group 157" transform="translate(-1267 -200)">
    <rect id="Rectangle_47" data-name="Rectangle 47" width="27" height="27" rx="3" transform="translate(1267 200)"/>
    <g id="Mask_Group_1" data-name="Mask Group 1" transform="translate(1271.581 204.581)" clip-path="url(#clip-path)">
      <g id="_002-instagram" data-name="002-instagram" transform="translate(0.284 0.284)">
        <g id="Group_14" data-name="Group 14">
          <g id="Group_13" data-name="Group 13">
            <path id="Path_25" data-name="Path 25" d="M11.683,0H5.311A5.311,5.311,0,0,0,0,5.311v6.373a5.311,5.311,0,0,0,5.311,5.311h6.373a5.311,5.311,0,0,0,5.311-5.311V5.311A5.311,5.311,0,0,0,11.683,0ZM15.4,11.683A3.722,3.722,0,0,1,11.683,15.4H5.311a3.722,3.722,0,0,1-3.717-3.717V5.311A3.722,3.722,0,0,1,5.311,1.593h6.373A3.722,3.722,0,0,1,15.4,5.311Z" fill="#fff"/>
          </g>
        </g>
        <g id="Group_16" data-name="Group 16" transform="translate(4.249 4.249)">
          <g id="Group_15" data-name="Group 15">
            <path id="Path_26" data-name="Path 26" d="M12,7.75A4.249,4.249,0,1,0,16.247,12,4.249,4.249,0,0,0,12,7.75Zm0,6.9A2.655,2.655,0,1,1,14.654,12,2.659,2.659,0,0,1,12,14.654Z" transform="translate(-7.75 -7.75)" fill="#fff"/>
          </g>
        </g>
        <g id="Group_18" data-name="Group 18" transform="translate(12.498 3.364)">
          <g id="Group_17" data-name="Group 17">
            <circle id="Ellipse_7" data-name="Ellipse 7" cx="0.566" cy="0.566" r="0.566" fill="#fff"/>
          </g>
        </g>
      </g>
    </g>
  </g>
</svg>
