<svg xmlns="http://www.w3.org/2000/svg" xmlns:xlink="http://www.w3.org/1999/xlink" width="27" height="27" viewBox="0 0 27 27">
  <defs>
    <clipPath id="clip-path">
      <rect id="Rectangle_51" data-name="Rectangle 51" width="17" height="17" rx="3" transform="translate(0.066 0.419)" fill="#fff"/>
    </clipPath>
  </defs>
  <g id="Group_159" data-name="Group 159" transform="translate(-1343 -200)">
    <rect id="Rectangle_52" data-name="Rectangle 52" width="27" height="27" rx="3" transform="translate(1343 200)"/>
    <g id="Mask_Group_3" data-name="Mask Group 3" transform="translate(1347.935 204.581)" clip-path="url(#clip-path)">
      <path id="_003-twitter" data-name="003-twitter" d="M6.552,14.373a15.069,15.069,0,0,1-2.327-.185,10.923,10.923,0,0,1-3.184-1.159L0,12.46l1.127-.37c1.231-.4,1.981-.656,2.908-1.049a3.868,3.868,0,0,1-1.989-2.3l-.262-.8L2,7.974a3.908,3.908,0,0,1-.489-.6,3.7,3.7,0,0,1-.629-2.2L.93,4.473l.416.161A3.887,3.887,0,0,1,.969,3.579,4.017,4.017,0,0,1,1.4.874L1.759.209l.484.582A8.914,8.914,0,0,0,8.018,4.042a3.454,3.454,0,0,1,.21-1.835,3.436,3.436,0,0,1,1.4-1.6,4.2,4.2,0,0,1,2.435-.6A3.889,3.889,0,0,1,14.45.994,8.025,8.025,0,0,0,15.325.7c.192-.072.409-.154.682-.248l1-.346-.654,1.868c.043,0,.088-.007.134-.009l1.071-.049-.633.865c-.036.05-.046.064-.058.083-.051.077-.115.173-.984,1.333a1.637,1.637,0,0,0-.306,1.066,10.083,10.083,0,0,1-.55,4.055A7.176,7.176,0,0,1,13.1,12.176a8.508,8.508,0,0,1-4.033,1.95,12.416,12.416,0,0,1-2.519.247Zm0,0" transform="translate(0 1.594)" fill="#fff"/>
    </g>
  </g>
</svg>
